<svg width="20" height="18" viewBox="0 0 20 18" fill="none" xmlns="http://www.w3.org/2000/svg">
<path d="M6.00007 5H4.77707C3.47707 5 2.82807 5 2.36707 5.265C1.96107 5.498 1.64907 5.865 1.48607 6.304C1.30107 6.803 1.40707 7.444 1.62107 8.724V8.726L2.55407 14.326C2.71307 15.276 2.79207 15.751 3.02907 16.108C3.23907 16.422 3.53207 16.67 3.87607 16.825C4.26607 17 4.74807 17 5.71107 17H14.2891C15.2521 17 15.7331 17 16.1241 16.825C16.4681 16.67 16.7621 16.422 16.9711 16.108C17.2081 15.751 17.2871 15.276 17.4451 14.326L18.3791 8.726V8.722C18.5931 7.442 18.6991 6.802 18.5141 6.304C18.3513 5.8654 18.0399 5.49775 17.6341 5.265C17.1731 5 16.5231 5 15.2231 5H14.0001M6.00007 5H14.0001M6.00007 5C6.00007 3.93913 6.4215 2.92172 7.17164 2.17157C7.92179 1.42143 8.9392 1 10.0001 1C11.0609 1 12.0784 1.42143 12.8285 2.17157C13.5786 2.92172 14.0001 3.93913 14.0001 5" stroke="white" stroke-width="2" stroke-linecap="round" stroke-linejoin="round"/>
</svg>
